PathFileType	4	(X/Y/Z)	6_coords_data.trc
DataRate	CameraRate	NumFrames	NumMarkers	Units	OrigDataRate	OrigDataStartFrame	OrigNumFrames
30.0	30.0	7	21	m	30.0	47	75
Frame#	Time	THUMB_TIP	THUMB_IP	THUMB_MCP	THUMB_CMC	INDEX_TIP	INDEX_DIP	INDEX_PIP	INDEX_MCP	MIDDLE_TIP	MIDDLE_DIP	MIDDLE_PIP	MIDDLE_MCP	RING_TIP	RING_DIP	RING_PIP	RING_MCP	PINKY_TIP	PINKY_DIP	PINKY_PIP	PINKY_MCP	WRIST
X1	Y1	Z1	X2	Y2	Z2	X3	Y3	Z3	X4	Y4	Z4	X5	Y5	Z5	X6	Y6	Z6	X7	Y7	Z7	X8	Y8	Z8	X9	Y9	Z9	X10	Y10	Z10	X11	Y11	Z11	X12	Y12	Z12	X13	Y13	Z13	X14	Y14	Z14	X15	Y15	Z15	X16	Y16	Z16	X17	Y17	Z17	X18	Y18	Z18	X19	Y19	Z19	X20	Y20	Z20	X21	Y21	Z21
46	1.5333333333333334	-0.012869099617004394	-0.13182400512695314	1.0127000122070313	-0.003684129953384399	-0.1057509994506836	1.0210499877929688	-0.007062389850616455	-0.07993199920654297	1.0390999755859376	-0.0071921501159667965	-0.0415629997253418	1.0506600341796875	0.003873330116271972	-0.048814899444580076	1.0198599853515624	0.021045799255371093	-0.04848669815063476	1.00947998046875	0.025003000259399413	-0.05395130157470703	0.9847369995117188	-0.015854000091552734	-0.05656179809570312	0.990281982421875	0.009192620277404785	-0.03378570175170898	1.022739990234375	0.019735200881958008	-0.03124370002746582	1.01277001953125	0.0253218994140625	-0.03213510131835937	0.9833460083007812	-0.019490800857543945	-0.032256099700927736	0.9827739868164063	0.0043087201118469235	-0.016572799682617188	1.0236500244140625	0.017048500061035157	-0.013873499870300293	1.0139400024414063	0.024729799270629883	-0.011397199630737305	0.9869840087890625	-0.017806400299072267	-0.007614640235900879	0.9857890014648437	0.002868459939956665	0.00040620198845863306	1.0213200073242188	0.017633100509643555	0.002021490097045898	1.0115	0.019662300109863282	0.007150819778442383	0.9927420043945312	-0.01167389965057373	0.012531900405883789	0.9943740234375	-0.025822999954223633	-0.011651700019836425	1.067469970703125
47	1.5666666666666667	-0.003307209968566894	-0.13051499938964845	1.0108900146484374	0.002146699905395508	-0.10388899993896485	1.0204099731445313	-0.004878809928894043	-0.07919999694824219	1.0394599609375	-0.006790709972381592	-0.040832199096679685	1.0506600341796875	0.006231689929962158	-0.04822480010986328	1.01927001953125	0.02268600082397461	-0.0486161994934082	1.0068599853515625	0.02322410011291504	-0.05489979934692383	0.9818709716796875	-0.01676740074157715	-0.056529399871826175	0.9902160034179688	0.009596139907836913	-0.0336254997253418	1.0221400146484374	0.021736200332641602	-0.03134989929199219	1.0107000122070313	0.023794700622558593	-0.03298820114135742	0.9800960083007813	-0.02075320053100586	-0.032498401641845705	0.9826539916992187	0.004824130058288574	-0.016486900329589844	1.022780029296875	0.01862179946899414	-0.01421560001373291	1.0116400146484374	0.023501800537109374	-0.012146300315856933	0.9834500122070312	-0.01916160011291504	-0.007823560237884521	0.9858469848632813	0.0044452700614929196	-0.000112494997680187	1.0198099975585937	0.01890839958190918	0.0015749900341033931	1.008780029296875	0.01864069938659668	0.006585360050201416	0.989333984375	-0.012663700103759766	0.012221699714660644	0.9942570190429687	-0.025906999588012694	-0.0113125	1.0674300537109376
48	1.6	0.01163230037689209	-0.12570899963378906	1.00752001953125	0.011603899955749512	-0.09950800323486328	1.01922998046875	-0.0006957679986953731	-0.07765950012207032	1.0393800048828126	-0.005257390022277832	-0.03999459838867187	1.05022998046875	0.013036700248718261	-0.047172401428222654	1.0183900146484375	0.026886600494384766	-0.048194599151611325	1.0031599731445313	0.02289889907836914	-0.054802101135253904	0.97868798828125	-0.016351900100708007	-0.056145000457763675	0.9902009887695312	0.012480600357055664	-0.033222599029541014	1.021989990234375	0.02706800079345703	-0.030997100830078124	1.00752001953125	0.023721399307250975	-0.032821300506591794	0.9770390014648438	-0.020621999740600586	-0.03222190093994141	0.98260400390625	0.007780590057373047	-0.016162799835205077	1.0230800170898438	0.022933500289916992	-0.014029800415039062	1.0093800048828125	0.02338990020751953	-0.011856200218200684	0.9804669799804687	-0.019061300277709962	-0.0076757497787475586	0.9857470092773437	0.00815347957611084	-0.000413993000984191	1.0188900146484374	0.02206130027770996	0.00159876000881195	1.0059199829101562	0.018454599380493163	0.0069261698722839354	0.9869030151367187	-0.01247599983215332	0.012279899597167968	0.9939169921875	-0.02657229995727539	-0.010991499900817872	1.0672099609375
49	1.6333333333333333	0.027756099700927735	-0.1176050033569336	1.0056599731445313	0.021797700881958006	-0.09299250030517578	1.0188200073242188	0.0044500699043273926	-0.0753822021484375	1.0398800048828125	-0.0027965600490570067	-0.039140098571777346	1.0504300537109375	0.024914400100708008	-0.045135398864746094	1.0151099853515626	0.03348899841308594	-0.048115398406982424	0.9961950073242187	0.02238479995727539	-0.05518109893798828	0.974676025390625	-0.015184700012207031	-0.05565650177001953	0.9905609741210938	0.021274099349975584	-0.032340599060058595	1.019280029296875	0.03427500152587891	-0.03063640022277832	1.0014600219726562	0.023137500762939453	-0.03291669845581055	0.9728460083007813	-0.02014979934692383	-0.03205630111694336	0.9828040161132813	0.015899499893188476	-0.01582100009918213	1.02102001953125	0.030118999481201173	-0.013834699630737305	1.003760009765625	0.022849300384521484	-0.011378100395202637	0.9759500122070313	-0.018698299407958984	-0.007621980190277099	0.9857670288085938	0.015475000381469727	-0.0007311980128288261	1.0173699951171875	0.02663409996032715	0.002122129917144775	1.0011300048828125	0.01806319999694824	0.007739029884338379	0.983698974609375	-0.012123800277709961	0.012457599639892578	0.9941170043945312	-0.02679669952392578	-0.01052560043334961	1.067280029296875
50	1.6666666666666667	0.036767898559570314	-0.11083699798583985	1.0048499755859375	0.027816299438476563	-0.08785040283203124	1.0186400146484376	0.007982940196990966	-0.07325150299072265	1.040050048828125	-0.0008807029724121091	-0.03865349960327148	1.0506600341796875	0.03900579833984375	-0.043809398651123044	1.0091500244140625	0.03924689865112305	-0.04831869888305664	0.9893579711914062	0.022173200607299805	-0.05566220092773438	0.9714030151367188	-0.01382479953765869	-0.05500859832763672	0.9909810180664063	0.03495429992675781	-0.030678800582885742	1.0131699829101561	0.04117829895019531	-0.0301914005279541	0.9934580078125	0.022880800247192384	-0.03296060180664063	0.9687219848632812	-0.019330400466918946	-0.031371299743652346	0.9833569946289062	0.03056850051879883	-0.015449700355529785	1.0145700073242188	0.03760139846801758	-0.013152400016784667	0.9961680297851563	0.02267539978027344	-0.010540499687194824	0.9718820190429688	-0.017510799407958983	-0.00711709976196289	0.9860079956054687	0.026904300689697267	-0.001035300016403198	1.0100499877929687	0.030557199478149413	0.004044079780578613	0.993551025390625	0.017305999755859374	0.010074700355529785	0.9801799926757813	-0.01085859966278076	0.012949299812316895	0.9941090087890625	-0.02678630065917969	-0.009969329833984375	1.06756005859375
51	1.7	0.03797389984130859	-0.10881999969482421	1.0037899780273438	0.028809299468994142	-0.08630819702148437	1.017969970703125	0.008619279861450195	-0.07238529968261719	1.0396199951171874	-0.001067950010299682	-0.03823609924316406	1.05081005859375	0.053290401458740234	-0.043054401397705076	0.9988109741210938	0.044390098571777344	-0.04871120071411133	0.9811669921875	0.02301259994506836	-0.05539130020141601	0.9692269897460938	-0.011864100456237793	-0.05395589828491211	0.9915980224609375	0.04977170181274414	-0.02904669952392578	1.0045800170898438	0.047277198791503904	-0.02953030014038086	0.9840700073242188	0.02319980049133301	-0.032019798278808596	0.964625	-0.017511800765991212	-0.030054899215698243	0.983843017578125	0.04594670104980469	-0.014544899940490724	1.00675	0.044884799957275394	-0.012106599807739258	0.9877750244140625	0.023680900573730467	-0.009053580284118653	0.9683770141601562	-0.015327899932861329	-0.0061639599800109865	0.9867100219726562	0.036289600372314455	0.001743469953536987	1.0009000244140625	0.03245420074462891	0.008339389801025391	0.9846290283203125	0.016071199417114258	0.013824700355529785	0.975926025390625	-0.009089699745178223	0.014256999969482423	0.994364013671875	-0.02687299919128418	-0.009122099876403809	1.06777001953125
52	1.7333333333333334	0.04125790023803711	-0.10568000030517578	1.0026199951171875	0.0314286994934082	-0.08405130004882813	1.0171199951171874	0.010472800254821777	-0.07103569793701171	1.03897998046875	-0.0006033579707145691	-0.03727619934082031	1.0508299560546874	0.06216080093383789	-0.042911998748779295	0.9870020141601562	0.047574798583984376	-0.04869950103759765	0.9735770263671875	0.02386720085144043	-0.0544646987915039	0.96685400390625	-0.009764410018920899	-0.05270660018920898	0.9914990234375	0.06114120101928711	-0.027332799911499023	0.9911680297851563	0.05060250091552734	-0.028450599670410158	0.9725579833984375	0.02273609924316406	-0.03062779998779297	0.9604039916992188	-0.015630399703979492	-0.028596399307250976	0.9844929809570313	0.05876440048217774	-0.01316129970550537	0.9946069946289062	0.04980170059204102	-0.009771679878234863	0.977531005859375	0.02385580062866211	-0.006591249942779541	0.9645830078125	-0.01322719955444336	-0.005004300117492676	0.9874429931640625	0.04365959930419922	0.00504371976852417	0.9936190185546875	0.034141300201416015	0.012372099876403808	0.9801320190429688	0.01588549995422363	0.01725869941711426	0.9750050048828125	-0.007550310134887695	0.015683600425720215	0.9952540283203125	-0.0265231990814209	-0.008366310119628906	1.0678800048828125
